<svg width="40" height="40" viewBox="0 0 40 40" fill="none" xmlns="http://www.w3.org/2000/svg">
<circle cx="20" cy="20" r="20" fill="url(#paint0_linear_105_15)"/>
<path d="M19.2606 15.0851C19.5334 14.4266 20.4664 14.4266 20.7391 15.0851L23.4227 21.5626L28.4169 16.4864C28.9189 15.9761 29.787 16.3321 29.787 17.048V29.964C29.7868 30.5161 29.3391 30.964 28.787 30.964H11.2128C10.6606 30.964 10.213 30.5161 10.2128 29.964V17.048C10.2128 16.3321 11.0808 15.9763 11.5829 16.4864L16.576 21.5626L19.2606 15.0851Z" fill="white"/>
<circle cx="28.5106" cy="11.4894" r="1.2766" fill="white"/>
<circle cx="11.4894" cy="11.4894" r="1.2766" fill="white"/>
<path d="M21.2766 9.78723C21.2766 10.4923 20.705 11.0638 20 11.0638C19.295 11.0638 18.7234 10.4923 18.7234 9.78723C18.7234 9.08219 19.295 8.51064 20 8.51064C20.705 8.51064 21.2766 9.08219 21.2766 9.78723Z" fill="white"/>
<defs>
<linearGradient id="paint0_linear_105_15" x1="20" y1="0" x2="20" y2="40" gradientUnits="userSpaceOnUse">
<stop stop-color="#FF7070"/>
<stop offset="1" stop-color="#FF8989"/>
</linearGradient>
</defs>
</svg>
