<svg width="42" height="42" viewBox="0 0 42 42" fill="none" xmlns="http://www.w3.org/2000/svg">
<g id="Group 40">
<circle id="Ellipse 1" cx="21" cy="21" r="20" fill="#FF8989" stroke="black" stroke-width="1.5"/>
<g id="Union">
<path d="M20.2606 16.0844C20.5335 15.4264 21.4662 15.4264 21.7391 16.0844L24.4227 22.563L29.4169 17.4868C29.9188 16.9765 30.7868 17.3316 30.787 18.0473V30.9633C30.787 31.5156 30.3393 31.9633 29.787 31.9633H12.2128C11.6605 31.9633 11.2128 31.5156 11.2128 30.9633V18.0473C11.213 17.3316 12.0809 16.9765 12.5829 17.4868L17.576 22.562L20.2606 16.0844Z" fill="#FFE100"/>
<path d="M20.2606 16.0844L19.5678 15.7972L19.5678 15.7973L20.2606 16.0844ZM21.7391 16.0844L22.432 15.7974L22.4319 15.7971L21.7391 16.0844ZM24.4227 22.563L23.7298 22.85C23.8261 23.0824 24.0325 23.2511 24.2794 23.2991C24.5263 23.3472 24.7809 23.2683 24.9574 23.0889L24.4227 22.563ZM29.4169 17.4868L29.9515 18.0128L29.9515 18.0127L29.4169 17.4868ZM30.787 18.0473H31.537V18.0471L30.787 18.0473ZM11.2128 18.0473L10.4628 18.0471V18.0473H11.2128ZM12.5829 17.4868L12.0482 18.0127L12.0482 18.0128L12.5829 17.4868ZM17.576 22.562L17.0414 23.088C17.2178 23.2673 17.4724 23.3462 17.7193 23.2982C17.9662 23.2501 18.1726 23.0815 18.2689 22.8491L17.576 22.562ZM20.2606 16.0844L20.9534 16.3717C20.9583 16.3599 20.9625 16.3546 20.9641 16.3527C20.9658 16.3507 20.9673 16.3494 20.9692 16.3482C20.9736 16.3454 20.9841 16.3409 20.9998 16.3409C21.0155 16.3409 21.026 16.3454 21.0305 16.3482C21.0324 16.3494 21.034 16.3507 21.0357 16.3528C21.0373 16.3546 21.0415 16.36 21.0464 16.3718L21.7391 16.0844L22.4319 15.7971C21.9032 14.5224 20.0965 14.522 19.5678 15.7972L20.2606 16.0844ZM21.7391 16.0844L21.0462 16.3715L23.7298 22.85L24.4227 22.563L25.1156 22.2759L22.432 15.7974L21.7391 16.0844ZM24.4227 22.563L24.9574 23.0889L29.9515 18.0128L29.4169 17.4868L28.8822 16.9608L23.8881 22.037L24.4227 22.563ZM29.4169 17.4868L29.9515 18.0127C29.9606 18.0035 29.9667 18 29.9688 17.9989C29.9712 17.9976 29.9731 17.997 29.9752 17.9966C29.9803 17.9957 29.9916 17.9955 30.0061 18.0015C30.0205 18.0074 30.0285 18.0154 30.0314 18.0196C30.0327 18.0214 30.0336 18.0231 30.0344 18.0256C30.0351 18.0279 30.037 18.0346 30.037 18.0476L30.787 18.0473L31.537 18.0471C31.5365 16.6602 29.8546 15.9723 28.8822 16.9608L29.4169 17.4868ZM30.787 18.0473H30.037V30.9633H30.787H31.537V18.0473H30.787ZM30.787 30.9633H30.037C30.037 31.1014 29.9251 31.2133 29.787 31.2133V31.9633V32.7133C30.7535 32.7133 31.537 31.9298 31.537 30.9633H30.787ZM29.787 31.9633V31.2133H12.2128V31.9633V32.7133H29.787V31.9633ZM12.2128 31.9633V31.2133C12.0747 31.2133 11.9628 31.1014 11.9628 30.9633H11.2128H10.4628C10.4628 31.9298 11.2463 32.7133 12.2128 32.7133V31.9633ZM11.2128 30.9633H11.9628V18.0473H11.2128H10.4628V30.9633H11.2128ZM11.2128 18.0473L11.9628 18.0476C11.9628 18.0346 11.9646 18.0279 11.9654 18.0256C11.9662 18.0231 11.9671 18.0214 11.9683 18.0196C11.9713 18.0154 11.9792 18.0074 11.9937 18.0015C12.0081 17.9955 12.0195 17.9957 12.0245 17.9966C12.0267 17.997 12.0286 17.9976 12.0309 17.9989C12.0331 18 12.0391 18.0035 12.0482 18.0127L12.5829 17.4868L13.1175 16.9608C12.1451 15.9723 10.4632 16.6601 10.4628 18.0471L11.2128 18.0473ZM12.5829 17.4868L12.0482 18.0128L17.0414 23.088L17.576 22.562L18.1107 22.036L13.1175 16.9608L12.5829 17.4868ZM17.576 22.562L18.2689 22.8491L20.9535 16.3716L20.2606 16.0844L19.5678 15.7973L16.8832 22.2748L17.576 22.562Z" fill="black"/>
</g>
<circle id="Ellipse 3" cx="29.5106" cy="12.4894" r="2.0266" fill="#FFE100" stroke="#111111" stroke-width="1.5"/>
<circle id="Ellipse 4" cx="12.4894" cy="12.4894" r="2.0266" fill="#FFE100" stroke="#111111" stroke-width="1.5"/>
<path id="Ellipse 5" d="M20.9998 8.76064C22.119 8.76064 23.026 9.66785 23.0261 10.787C23.0261 11.9063 22.119 12.8134 20.9998 12.8134C19.8806 12.8132 18.9734 11.9062 18.9734 10.787C18.9735 9.66793 19.8807 8.76076 20.9998 8.76064Z" fill="#FFE100" stroke="#111111" stroke-width="1.5"/>
</g>
</svg>
